<?xml version="1.0" encoding="UTF-8" standalone="no"?>
<!DOCTYPE svg PUBLIC "-//W3C//DTD SVG 1.0//EN" "http://www.w3.org/TR/2001/REC-SVG-20010904/DTD/svg10.dtd">
<!-- Generato da Microsoft Visio 11.0, SVG Export, v1.0 handarch.svg Pagina 1 -->
<svg xmlns="http://www.w3.org/2000/svg" xmlns:v="http://schemas.microsoft.com/visio/2003/SVGExtensions/" width="6.26079in"
		height="3.83953in" viewBox="0 0 450.777 276.446" xml:space="preserve" color-interpolation-filters="sRGB" class="st10">
	<v:documentProperties v:langID="1040" v:metric="true" v:viewMarkup="false">
		<v:userDefs>
			<v:ud v:nameU="MBSAAddinOutlineVisible" v:prompt="" v:val="VT0(1):26"/>
		</v:userDefs>
	</v:documentProperties>

	<style type="text/css">
	<![CDATA[
		.st1 {fill:#ffffff;stroke:none;stroke-linecap:round;stroke-linejoin:round;stroke-width:2.16}
		.st2 {fill:none;stroke:none;stroke-linecap:round;stroke-linejoin:round;stroke-width:2.16}
		.st3 {fill:#000000;font-family:Arial;font-size:0.666664em;font-weight:bold}
		.st4 {fill:#ffffff;fill-opacity:0;stroke:#000000;stroke-linecap:round;stroke-linejoin:round;stroke-width:0.72}
		.st5 {fill:#000000;font-family:Cera PROModern Medium;font-size:0.666664em}
		.st6 {fill:#000000;font-family:Arial;font-size:0.666664em;font-style:italic}
		.st7 {stroke:#000000;stroke-linecap:round;stroke-linejoin:round;stroke-width:0.72}
		.st8 {fill:#000000;stroke:#000000;stroke-linecap:round;stroke-linejoin:round;stroke-width:0.72}
		.st9 {font-size:1em}
		.st10 {fill:none;fill-rule:evenodd;font-size:12;overflow:visible;stroke-linecap:square;stroke-miterlimit:3}
	]]>
	</style>

	<g v:mID="0" v:index="1" v:groupContext="foregroundPage">
		<title>Pagina 1</title>
		<v:pageProperties v:drawingScale="0.0393701" v:pageScale="0.0393701" v:drawingUnits="24" v:shadowOffsetX="8.50394"
				v:shadowOffsetY="-8.50394"/>
		<g id="shape139-1" v:mID="139" v:groupContext="shape" transform="translate(2.16,-2.16)">
			<title>Foglio.139</title>
			<rect x="0" y="4.32" width="446.457" height="272.126" class="st1"/>
		</g>
		<g id="shape150-3" v:mID="150" v:groupContext="shape" transform="translate(46.3923,-159.899)">
			<title>Foglio.150</title>
			<desc>BindingProvider</desc>
			<v:textBlock v:margins="rect(4,4,4,4)" v:tabSpace="42.5197"/>
			<v:textRect cx="49.4587" cy="269.492" width="98.92" height="13.9075"/>
			<rect x="0" y="262.539" width="98.9173" height="13.9075" class="st2"/>
			<text x="18.35" y="271.89" class="st3" v:langID="1040"><v:paragraph v:horizAlign="1"/><v:tabList/>BindingProvider</text>		</g>
		<g id="shape151-6" v:mID="151" v:groupContext="shape" transform="translate(46.5204,-157.499)">
			<title>Foglio.151</title>
			<rect x="0" y="256.603" width="139.892" height="19.8425" class="st4"/>
		</g>
		<g id="shape1-8" v:mID="1" v:groupContext="shape" transform="translate(46.5204,-138.223)">
			<title>Foglio.1</title>
			<rect x="0" y="257.17" width="139.892" height="19.2756" class="st4"/>
		</g>
		<g id="shape2-10" v:mID="2" v:groupContext="shape" transform="translate(46.5204,-109.877)">
			<title>Foglio.2</title>
			<rect x="0" y="248.1" width="139.892" height="28.3465" class="st4"/>
		</g>
		<g id="shape3-12" v:mID="3" v:groupContext="shape" transform="translate(46.9533,-117.247)">
			<title>Foglio.3</title>
			<desc>getBinding() : Binding</desc>
			<v:textBlock v:margins="rect(4,4,4,4)" v:tabSpace="42.5197"/>
			<v:textRect cx="56.9734" cy="267.942" width="113.95" height="17.0079"/>
			<rect x="0" y="259.438" width="113.947" height="17.0079" class="st2"/>
			<text x="16.08" y="270.34" class="st5" v:langID="1040"><v:paragraph v:horizAlign="1"/><v:tabList/>getBinding() : Binding</text>		</g>
		<g id="shape4-15" v:mID="4" v:groupContext="shape" transform="translate(11.2434,-50.7653)">
			<title>Foglio.4</title>
			<desc>Proxy</desc>
			<v:textBlock v:margins="rect(4,4,4,4)" v:tabSpace="42.5197"/>
			<v:textRect cx="30.4826" cy="269.492" width="60.97" height="13.9075"/>
			<rect x="0" y="262.539" width="60.9653" height="13.9075" class="st2"/>
			<text x="19.37" y="271.89" class="st3" v:langID="1040"><v:paragraph v:horizAlign="1"/><v:tabList/>Proxy</text>		</g>
		<g id="shape5-18" v:mID="5" v:groupContext="shape" transform="translate(9.24661,-48.0566)">
			<title>Foglio.5</title>
			<rect x="0" y="257.146" width="81.9668" height="19.3002" class="st4"/>
		</g>
		<g id="shape6-20" v:mID="6" v:groupContext="shape" transform="translate(9.24661,-28.5099)">
			<title>Foglio.6</title>
			<rect x="0" y="256.875" width="81.9668" height="19.5714" class="st4"/>
		</g>
		<g id="shape7-22" v:mID="7" v:groupContext="shape" transform="translate(9.24661,-7.82929)">
			<title>Foglio.7</title>
			<rect x="0" y="255.561" width="81.9668" height="20.8853" class="st4"/>
		</g>
		<g id="shape8-24" v:mID="8" v:groupContext="shape" transform="translate(9.63241,-10.6639)">
			<title>Foglio.8</title>
			<desc>...</desc>
			<v:textBlock v:margins="rect(4,4,4,4)" v:tabSpace="42.5197"/>
			<v:textRect cx="38.724" cy="267.942" width="77.45" height="17.0079"/>
			<rect x="0" y="259.438" width="77.448" height="17.0079" class="st2"/>
			<text x="35.48" y="270.34" class="st5" v:langID="1040"><v:paragraph v:horizAlign="1"/><v:tabList/>...</text>		</g>
		<g id="shape9-27" v:mID="9" v:groupContext="shape" transform="translate(141.756,-50.349)">
			<title>Foglio.9</title>
			<desc>Dispatch</desc>
			<v:textBlock v:margins="rect(4,4,4,4)" v:tabSpace="42.5197"/>
			<v:textRect cx="30.4826" cy="269.492" width="60.97" height="13.9075"/>
			<rect x="0" y="262.539" width="60.9653" height="13.9075" class="st2"/>
			<text x="13.59" y="271.89" class="st3" v:langID="1040"><v:paragraph v:horizAlign="1"/><v:tabList/>Dispatch</text>		</g>
		<g id="shape10-30" v:mID="10" v:groupContext="shape" transform="translate(139.759,-47.5808)">
			<title>Foglio.10</title>
			<rect x="0" y="256.67" width="81.9668" height="19.7761" class="st4"/>
		</g>
		<g id="shape11-32" v:mID="11" v:groupContext="shape" transform="translate(139.759,-27.5807)">
			<title>Foglio.11</title>
			<rect x="0" y="256.512" width="81.9668" height="19.9336" class="st4"/>
		</g>
		<g id="shape12-34" v:mID="12" v:groupContext="shape" transform="translate(139.759,-7.82929)">
			<title>Foglio.12</title>
			<rect x="0" y="256.695" width="81.9668" height="19.7515" class="st4"/>
		</g>
		<g id="shape13-36" v:mID="13" v:groupContext="shape" transform="translate(140.145,-11.7978)">
			<title>Foglio.13</title>
			<desc>...</desc>
			<v:textBlock v:margins="rect(4,4,4,4)" v:tabSpace="42.5197"/>
			<v:textRect cx="38.724" cy="267.942" width="77.45" height="17.0079"/>
			<rect x="0" y="259.438" width="77.448" height="17.0079" class="st2"/>
			<text x="35.48" y="270.34" class="st5" v:langID="1040"><v:paragraph v:horizAlign="1"/><v:tabList/>...</text>		</g>
		<g id="shape14-39" v:mID="14" v:groupContext="shape" transform="translate(164.178,-77.2781)">
			<title>Foglio.14</title>
			<desc>extends</desc>
			<v:textBlock v:margins="rect(4,4,4,4)" v:tabSpace="42.5197"/>
			<v:textRect cx="25.2901" cy="269.492" width="50.59" height="13.9075"/>
			<rect x="0" y="262.539" width="50.5803" height="13.9075" class="st2"/>
			<text x="11.28" y="271.89" class="st6" v:langID="1040"><v:paragraph v:horizAlign="1"/><v:tabList/>extends</text>		</g>
		<g id="shape15-42" v:mID="15" v:groupContext="shape" transform="translate(63.1528,-75.9937)">
			<title>Foglio.15</title>
			<desc>implements</desc>
			<v:textBlock v:margins="rect(4,4,4,4)" v:tabSpace="42.5197"/>
			<v:textRect cx="25.2901" cy="269.492" width="50.59" height="13.9075"/>
			<rect x="0" y="262.539" width="50.5803" height="13.9075" class="st2"/>
			<text x="4.84" y="271.89" class="st6" v:langID="1040"><v:paragraph v:horizAlign="1"/><v:tabList/>implements</text>		</g>
		<g id="shape16-45" v:mID="16" v:groupContext="shape" transform="translate(301.51,-194.765)">
			<title>Foglio.16</title>
			<desc>Binding</desc>
			<v:textBlock v:margins="rect(4,4,4,4)" v:tabSpace="42.5197"/>
			<v:textRect cx="49.4587" cy="269.492" width="98.92" height="13.9075"/>
			<rect x="0" y="262.539" width="98.9173" height="13.9075" class="st2"/>
			<text x="34.57" y="271.89" class="st3" v:langID="1040"><v:paragraph v:horizAlign="1"/><v:tabList/>Binding</text>		</g>
		<g id="shape17-48" v:mID="17" v:groupContext="shape" transform="translate(285.753,-192.081)">
			<title>Foglio.17</title>
			<rect x="0" y="256.603" width="155.777" height="19.8425" class="st4"/>
		</g>
		<g id="shape18-50" v:mID="18" v:groupContext="shape" transform="translate(285.753,-172.239)">
			<title>Foglio.18</title>
			<rect x="0" y="256.603" width="155.777" height="19.8425" class="st4"/>
		</g>
		<g id="shape19-52" v:mID="19" v:groupContext="shape" transform="translate(285.753,-139.64)">
			<title>Foglio.19</title>
			<rect x="0" y="243.848" width="155.777" height="32.5984" class="st4"/>
		</g>
		<g id="shape31-54" v:mID="31" v:groupContext="shape" transform="translate(192.525,-229.197)">
			<title>Foglio.31</title>
			<desc>has-a</desc>
			<v:textBlock v:margins="rect(4,4,4,4)" v:tabSpace="42.5197"/>
			<v:textRect cx="25.2901" cy="269.492" width="50.59" height="13.9075"/>
			<rect x="0" y="262.539" width="50.5803" height="13.9075" class="st2"/>
			<text x="15.28" y="271.89" class="st6" v:langID="1040"><v:paragraph v:horizAlign="1"/><v:tabList/>has-a</text>		</g>
		<g id="shape32-57" v:mID="32" v:groupContext="shape" transform="translate(192.525,-134.104)">
			<title>Foglio.32</title>
			<desc>has-a</desc>
			<v:textBlock v:margins="rect(4,4,4,4)" v:tabSpace="42.5197"/>
			<v:textRect cx="25.2901" cy="269.492" width="50.59" height="13.9075"/>
			<rect x="0" y="262.539" width="50.5803" height="13.9075" class="st2"/>
			<text x="15.28" y="271.89" class="st6" v:langID="1040"><v:paragraph v:horizAlign="1"/><v:tabList/>has-a</text>		</g>
		<g id="shape33-60" v:mID="33" v:groupContext="shape" transform="translate(359.325,-107.308)">
			<title>Foglio.33</title>
			<desc>one-to-many</desc>
			<v:textBlock v:margins="rect(4,4,4,4)" v:tabSpace="42.5197"/>
			<v:textRect cx="32.5984" cy="269.492" width="65.2" height="13.9075"/>
			<rect x="0" y="262.539" width="65.1969" height="13.9075" class="st2"/>
			<text x="10.14" y="271.89" class="st6" v:langID="1040"><v:paragraph v:horizAlign="1"/><v:tabList/>one-to-many</text>		</g>
		<g id="shape34-63" v:mID="34" v:groupContext="shape" transform="translate(381.898,-183.327) rotate(20.3523) scale(-1,1)">
			<title>Foglio.34</title>
			<path d="M0 276.45 L105.96 276.45" class="st7"/>
		</g>
		<g id="shape35-66" v:mID="35" v:groupContext="shape" transform="translate(535.194,169.644) rotate(-70) scale(1,-1)">
			<title>Foglio.35</title>
			<path d="M5.67 276.45 L0 276.45 L2.83 266.81 L5.67 276.45 Z" class="st8"/>
		</g>
		<g id="shape36-68" v:mID="36" v:groupContext="shape" transform="translate(227.701,-159.396) rotate(-12.0948) scale(-1,1)">
			<title>Foglio.36</title>
			<path d="M0 276.45 L101.46 276.45" class="st7"/>
		</g>
		<g id="shape37-71" v:mID="37" v:groupContext="shape" transform="translate(544.197,44.1832) rotate(75) scale(-1,1)">
			<title>Foglio.37</title>
			<path d="M5.67 276.45 L0 276.45 L2.83 266.81 L5.67 276.45 Z" class="st8"/>
		</g>
		<g id="shape38-73" v:mID="38" v:groupContext="shape" transform="translate(639.904,179.325) rotate(90) scale(-1,1)">
			<title>Foglio.38</title>
			<path d="M0 276.45 L42.52 276.45" class="st7"/>
		</g>
		<g id="shape39-76" v:mID="39" v:groupContext="shape" transform="translate(360.624,445.85) scale(1,-1)">
			<title>Foglio.39</title>
			<path d="M5.67 276.45 L0 276.45 L2.83 266.81 L5.67 276.45 Z" class="st8"/>
		</g>
		<g id="shape40-78" v:mID="40" v:groupContext="shape" transform="translate(-79.4602,-50.7013) rotate(-38.1301) scale(-1,1)">
			<title>Foglio.40</title>
			<path d="M0 276.45 L67.69 276.45" class="st7"/>
		</g>
		<g id="shape41-81" v:mID="41" v:groupContext="shape" transform="translate(297.334,-2.76008) rotate(50) scale(-1,1)">
			<title>Foglio.41</title>
			<path d="M5.67 276.45 L0 276.45 L2.83 266.81 L5.67 276.45 Z" class="st8"/>
		</g>
		<g id="shape42-83" v:mID="42" v:groupContext="shape" transform="translate(-53.7086,370.488) rotate(42.4691) scale(1,-1)">
			<title>Foglio.42</title>
			<path d="M0 276.45 L62.88 276.45" class="st7"/>
		</g>
		<g id="shape43-86" v:mID="43" v:groupContext="shape" transform="translate(-69.7827,-6.96597) rotate(-50) scale(-1,1)">
			<title>Foglio.43</title>
			<path d="M5.67 276.45 L0 276.45 L2.83 266.81 L5.67 276.45 Z" class="st8"/>
		</g>
		<g id="shape21-88" v:mID="21" v:groupContext="shape" transform="translate(50.349,-251.175)">
			<title>Foglio.21</title>
			<desc>Endpoint</desc>
			<v:textBlock v:margins="rect(4,4,4,4)" v:tabSpace="42.5197"/>
			<v:textRect cx="49.4587" cy="269.492" width="98.92" height="13.9075"/>
			<rect x="0" y="262.539" width="98.9173" height="13.9075" class="st2"/>
			<text x="32.13" y="271.89" class="st3" v:langID="1040"><v:paragraph v:horizAlign="1"/><v:tabList/>Endpoint</text>		</g>
		<g id="shape22-91" v:mID="22" v:groupContext="shape" transform="translate(46.5204,-248.774)">
			<title>Foglio.22</title>
			<rect x="0" y="256.603" width="139.892" height="19.8425" class="st4"/>
		</g>
		<g id="shape23-93" v:mID="23" v:groupContext="shape" transform="translate(46.5204,-229.499)">
			<title>Foglio.23</title>
			<rect x="0" y="257.17" width="139.892" height="19.2756" class="st4"/>
		</g>
		<g id="shape24-95" v:mID="24" v:groupContext="shape" transform="translate(46.5204,-201.152)">
			<title>Foglio.24</title>
			<rect x="0" y="248.1" width="139.892" height="28.3465" class="st4"/>
		</g>
		<g id="shape25-97" v:mID="25" v:groupContext="shape" transform="translate(46.9533,-208.522)">
			<title>Foglio.25</title>
			<desc>getBinding() : Binding</desc>
			<v:textBlock v:margins="rect(4,4,4,4)" v:tabSpace="42.5197"/>
			<v:textRect cx="56.9734" cy="267.942" width="113.95" height="17.0079"/>
			<rect x="0" y="259.438" width="113.947" height="17.0079" class="st2"/>
			<text x="16.08" y="270.34" class="st5" v:langID="1040"><v:paragraph v:horizAlign="1"/><v:tabList/>getBinding() : Binding</text>		</g>
		<g id="shape26-100" v:mID="26" v:groupContext="shape" transform="translate(327.306,-80.1128)">
			<title>Foglio.26</title>
			<desc>Handler</desc>
			<v:textBlock v:margins="rect(4,4,4,4)" v:tabSpace="42.5197"/>
			<v:textRect cx="30.4826" cy="269.492" width="60.97" height="13.9075"/>
			<rect x="0" y="262.539" width="60.9653" height="13.9075" class="st2"/>
			<text x="15.59" y="271.89" class="st3" v:langID="1040"><v:paragraph v:horizAlign="1"/><v:tabList/>Handler</text>		</g>
		<g id="shape27-103" v:mID="27" v:groupContext="shape" transform="translate(325.31,-77.3445)">
			<title>Foglio.27</title>
			<rect x="0" y="256.67" width="81.9668" height="19.7761" class="st4"/>
		</g>
		<g id="shape28-105" v:mID="28" v:groupContext="shape" transform="translate(325.31,-57.3445)">
			<title>Foglio.28</title>
			<rect x="0" y="256.512" width="81.9668" height="19.9336" class="st4"/>
		</g>
		<g id="shape29-107" v:mID="29" v:groupContext="shape" transform="translate(325.31,-37.5931)">
			<title>Foglio.29</title>
			<rect x="0" y="256.695" width="81.9668" height="19.7515" class="st4"/>
		</g>
		<g id="shape30-109" v:mID="30" v:groupContext="shape" transform="translate(325.695,-41.5616)">
			<title>Foglio.30</title>
			<desc>...</desc>
			<v:textBlock v:margins="rect(4,4,4,4)" v:tabSpace="42.5197"/>
			<v:textRect cx="38.724" cy="267.942" width="77.45" height="17.0079"/>
			<rect x="0" y="259.438" width="77.448" height="17.0079" class="st2"/>
			<text x="35.48" y="270.34" class="st5" v:langID="1040"><v:paragraph v:horizAlign="1"/><v:tabList/>...</text>		</g>
		<g id="shape44-112" v:mID="44" v:groupContext="shape" transform="translate(285.625,-139.64)">
			<title>Foglio.44</title>
			<desc>getHandlerChain():List setHandlerChain(List):void</desc>
			<v:textBlock v:margins="rect(4,4,4,4)" v:tabSpace="42.5197"/>
			<v:textRect cx="66.6142" cy="260.147" width="133.23" height="32.5984"/>
			<rect x="0" y="243.848" width="133.228" height="32.5984" class="st2"/>
			<text x="24.57" y="257.75" class="st5" v:langID="1040"><v:paragraph v:horizAlign="1"/><v:tabList/>getHandlerChain():List<v:newlineChar/><tspan
						x="17.11" dy="1.2em" class="st9">setHandlerChain</tspan>(List):void</text>		</g>
	</g>
</svg>
